<?xml version="1.0" encoding="utf-8"?>
<!-- Generator: Adobe Illustrator 26.0.1, SVG Export Plug-In . SVG Version: 6.00 Build 0)  -->
<svg version="1.1"
	 id="svg8" inkscape:version="1.0.1 (3bc2e813f5, 2020-09-07)" sodipodi:docname="WhatsApp1.svg" xmlns:cc="http://creativecommons.org/ns#" xmlns:dc="http://purl.org/dc/elements/1.1/" xmlns:inkscape="http://www.inkscape.org/namespaces/inkscape" xmlns:rdf="http://www.w3.org/1999/02/22-rdf-syntax-ns#" xmlns:sodipodi="http://sodipodi.sourceforge.net/DTD/sodipodi-0.dtd" xmlns:svg="http://www.w3.org/2000/svg"
	 xmlns="http://www.w3.org/2000/svg" xmlns:xlink="http://www.w3.org/1999/xlink" x="0px" y="0px" viewBox="0 0 60 60"
	 style="enable-background:new 0 0 60 60;" xml:space="preserve">
<style type="text/css">
	.st0{fill:#FFFFFF;}
	.st1{fill:none;}
	.st2{fill:url(#path15_00000153682418521240222550000008388729780066057348_);}
	.st3{fill-rule:evenodd;clip-rule:evenodd;fill:#FFFFFF;}
</style>
<sodipodi:namedview  bordercolor="#666666" borderopacity="1" gridtolerance="10" guidetolerance="10" id="namedview13" inkscape:current-layer="svg8" inkscape:cx="331.11719" inkscape:cy="378.64248" inkscape:pageopacity="0" inkscape:pageshadow="2" inkscape:window-height="715" inkscape:window-maximized="1" inkscape:window-width="1366" inkscape:window-x="-8" inkscape:window-y="-8" inkscape:zoom="0.85304745" objecttolerance="10" pagecolor="#ffffff" showgrid="false">
	</sodipodi:namedview>
<g>
	<path id="path400-6-0" sodipodi:nodetypes="ccccccssscc" class="st0" d="M5,55l3.5-12.8c-2.2-3.8-3.3-8-3.3-12.4
		C5.2,16.1,16.4,5,30.1,5c6.7,0,12.9,2.6,17.6,7.3c4.7,4.7,7.3,10.9,7.3,17.5c0,13.7-11.2,24.8-24.9,24.8c0,0,0,0,0,0h0
		c-4.2,0-8.3-1-11.9-3L5,55z"/>
	<path id="path61-8" class="st1" d="M30.1,9.2c-11.4,0-20.7,9.2-20.7,20.6c0,3.9,1.1,7.7,3.2,11l0.5,0.8L11,49.1l7.8-2l0.8,0.4
		c3.2,1.9,6.8,2.9,10.5,2.9h0c11.4,0,20.7-9.2,20.7-20.6c0-5.5-2.1-10.7-6.1-14.6C40.8,11.3,35.6,9.2,30.1,9.2L30.1,9.2z"/>
	
		<linearGradient id="path15_00000000182720855195923770000016250024564181917851_" gradientUnits="userSpaceOnUse" x1="-431.8426" y1="14.0293" x2="-431.7873" y2="4.7136" gradientTransform="matrix(3.7795 0 0 -3.7795 1662.1575 64.6799)">
		<stop  offset="0" style="stop-color:#57D163"/>
		<stop  offset="1" style="stop-color:#23B33A"/>
	</linearGradient>
	<path id="path15" style="fill:url(#path15_00000000182720855195923770000016250024564181917851_);" d="M30.1,9.2
		c-11.4,0-20.7,9.2-20.7,20.6c0,3.9,1.1,7.7,3.2,11l0.5,0.8L11,49.1l7.8-2l0.8,0.4c3.2,1.9,6.8,2.9,10.5,2.9h0
		c11.4,0,20.7-9.2,20.7-20.6c0-5.5-2.1-10.7-6.1-14.6C40.8,11.3,35.6,9.2,30.1,9.2z"/>
	<path id="path418-6" class="st3" d="M23.9,19.4c-0.5-1-1-1.1-1.4-1.1c-0.4,0-0.8,0-1.2,0c-0.4,0-1.1,0.2-1.7,0.8
		c-0.6,0.6-2.2,2.1-2.2,5.2s2.2,6,2.5,6.4c0.3,0.4,4.3,6.9,10.6,9.3c5.3,2.1,6.3,1.7,7.5,1.5c1.1-0.1,3.7-1.5,4.2-2.9
		c0.5-1.4,0.5-2.7,0.4-2.9c-0.2-0.3-0.6-0.4-1.2-0.7c-0.6-0.3-3.7-1.8-4.3-2c-0.6-0.2-1-0.3-1.4,0.3c-0.4,0.6-1.6,2-2,2.4
		c-0.4,0.4-0.7,0.5-1.3,0.2c-0.6-0.3-2.6-1-5-3.1c-1.8-1.6-3.1-3.7-3.5-4.3c-0.4-0.6,0-1,0.3-1.3c0.3-0.3,0.6-0.7,0.9-1.1
		c0.3-0.4,0.4-0.6,0.6-1c0.2-0.4,0.1-0.8-0.1-1.1C25.6,23.7,24.4,20.6,23.9,19.4"/>
</g>
</svg>
